<svg width="120" height="120" viewBox="0 0 120 120" xmlns="http://www.w3.org/2000/svg" role="img" aria-label="Padmavathi logo">
  <defs>
    <linearGradient id="grad" x1="0%" x2="100%" y1="0%" y2="100%">
      <stop offset="0%" stop-color="#9c1312" />
      <stop offset="100%" stop-color="#4b8339" />
    </linearGradient>
  </defs>
  <circle cx="60" cy="60" r="56" fill="url(#grad)" opacity="0.12" />
  <path
    d="M60 18L30 38v38c0 10.5 8.5 19 19 19h22c10.5 0 19-8.5 19-19V38L60 18z"
    fill="#ffffff"
    stroke="#9c1312"
    stroke-width="3"
    stroke-linejoin="round"
  />
  <path d="M60 18L90 38v38c0 10.5-8.5 19-19 19H60" fill="#4b8339" opacity="0.2" />
  <path d="M60 18L30 38v38c0 10.5 8.5 19 19 19H60" fill="#9c1312" opacity="0.2" />
  <rect x="43" y="47" width="10" height="10" fill="#9c1312" rx="1" />
  <rect x="57" y="47" width="10" height="10" fill="#4b8339" rx="1" />
  <rect x="43" y="61" width="10" height="10" fill="#9c1312" rx="1" />
  <rect x="57" y="61" width="10" height="10" fill="#4b8339" rx="1" />
  <path d="M60 75c8 10 8 20 8 20" stroke="#9c1312" stroke-width="2" stroke-linecap="round" />
  <path d="M60 75c-8 10-8 20-8 20" stroke="#4b8339" stroke-width="2" stroke-linecap="round" />
  <text x="50%" y="108" font-size="16" text-anchor="middle" fill="#0f172a" font-family="Inter, sans-serif">
    PC
  </text>
</svg>
